<svg width="24" height="24" viewBox="0 0 24 24" fill="none" xmlns="http://www.w3.org/2000/svg">
<path d="M24 12C24 9.62662 23.2962 7.30655 21.9776 5.33316C20.6591 3.35977 18.7849 1.8217 16.5922 0.913446C14.3995 0.005194 11.9867 -0.232446 9.65892 0.230577C7.33114 0.693599 5.19295 1.83649 3.51472 3.51472C1.83649 5.19295 0.693599 7.33114 0.230577 9.65892C-0.232446 11.9867 0.00519403 14.3995 0.913446 16.5922C1.8217 18.7849 3.35977 20.6591 5.33316 21.9776C7.30655 23.2962 9.62662 24 12 24V21.6C10.1013 21.6 8.24524 21.037 6.66653 19.9821C5.08781 18.9272 3.85736 17.4279 3.13076 15.6738C2.40415 13.9196 2.21404 11.9894 2.58446 10.1271C2.95488 8.26492 3.86919 6.55436 5.21177 5.21177C6.55436 3.86919 8.26492 2.95488 10.1271 2.58446C11.9894 2.21404 13.9196 2.40415 15.6738 3.13076C17.4279 3.85736 18.9272 5.08781 19.9821 6.66653C21.037 8.24524 21.6 10.1013 21.6 12H24Z" fill="#514F4D"/>
</svg>
